<?xml version="1.0" encoding="utf-8"?>
<!-- Generator: Adobe Illustrator 19.0.0, SVG Export Plug-In . SVG Version: 6.00 Build 0)  -->
<svg version="1.1" id="Layer_1" xmlns="http://www.w3.org/2000/svg" xmlns:xlink="http://www.w3.org/1999/xlink" x="0px" y="0px"
	 viewBox="-143 145 512 512" style="enable-background:new -143 145 512 512;" xml:space="preserve">
<style type="text/css">
	.st0{fill:#FFFFFF;stroke:#231F20;stroke-miterlimit:10;}
</style>
<g>
	<path class="st0" d="M113,372.5c-15.7,0-28.5,12.8-28.5,28.5s12.8,28.5,28.5,28.5s28.5-12.8,28.5-28.5S128.7,372.5,113,372.5z"/>
	<path class="st0" d="M179.2,299.8H46.8c-19.3,0-35,15.7-35,35v132.5c0,19.3,15.7,35,35,35h132.5c19.3,0,35-15.7,35-35V334.8
		C214.2,315.5,198.5,299.8,179.2,299.8z M113,459.5c-32.2,0-58.5-26.2-58.5-58.5s26.2-58.5,58.5-58.5s58.5,26.2,58.5,58.5
		S145.2,459.5,113,459.5z M192.9,335.6c0,8-6.5,14.5-14.5,14.5l0,0c-8,0-14.5-6.5-14.5-14.5l0,0c0-8,6.5-14.5,14.5-14.5l0,0
		C186.4,321.1,192.9,327.6,192.9,335.6L192.9,335.6z"/>
</g>
</svg>
